<svg xmlns="http://www.w3.org/2000/svg" viewBox="0 0 47.5 47.5" id="white"><defs><clipPath id="a"><path d="M0 38h38V0H0v38Z"></path></clipPath></defs><g clip-path="url(#a)" transform="matrix(1.25 0 0 -1.25 0 47.5)"><path fill="white" d="m29.045 5.002-.037.116-3.154 9.739L33 20.105l.002.001 2.06 1.512C35.758 22.319 35.94 23 34 23H23.235l-3.458 10.643c-.14.194-.375.358-.777.358-.404 0-.638-.166-.779-.36l-.208-.64V33l-3.25-10H4c-1.94 0-1.759-.681-1.062-1.381l2.057-1.51.001-.001 7.149-5.245S10 8 8.96 5C7.92 2 11 3.995 11 3.995l8 5.819 8.001-5.797S30 2 29.045 5.002"></path></g>
</svg>